<svg id="_Group_" data-name="&lt;Group&gt;" xmlns="http://www.w3.org/2000/svg" width="203.868" height="199.762" viewBox="0 0 203.868 199.762">
  <path id="_Group_2" data-name="&lt;Group&gt;" d="M185.373,66.6a11.874,11.874,0,0,1-1.4,16.53l-33.061,27.473a64.957,64.957,0,0,1-44.469,15.133l-47.961-2.328a74.5,74.5,0,0,0-16.065.931L22.4,128.067H21V68.93h.931L42.653,58.919a66.354,66.354,0,0,1,33.992-7.683l31.664,1.4h.7a11.641,11.641,0,0,1,11.641,10.244A11.874,11.874,0,0,1,111.1,75.915L87.587,80.339a6.985,6.985,0,0,0-4.656,10.477l2.561,4.424a6.286,6.286,0,0,0,6.053,3.26l22.817-.7a38.882,38.882,0,0,0,23.515-8.614l30.5-24.679a12.107,12.107,0,0,1,17,1.863Z" transform="translate(15.786 53.767)" fill="#edb288"/>
  <path id="_Group_3" data-name="&lt;Group&gt;" d="M157.735,23.147V77.162a8.847,8.847,0,0,1-8.614,8.847H45.514A8.847,8.847,0,0,1,36.9,77.162V66.918h94.293a8.847,8.847,0,0,0,8.614-8.847V14.3h9.313a8.847,8.847,0,0,1,8.614,8.847Z" transform="translate(36.905 4.791)" fill="#2ba037"/>
  <path id="_Group_4" data-name="&lt;Group&gt;" d="M150.035,25.191V68.962a8.847,8.847,0,0,1-8.614,8.847H37.814A8.847,8.847,0,0,1,29.2,68.962V14.947A8.847,8.847,0,0,1,37.814,6.1H141.421a8.847,8.847,0,0,1,8.614,8.847Z" transform="translate(26.677 -6.1)" fill="#3bb54a"/>
  <path id="_Group_5" data-name="&lt;Group&gt;" d="M41.986,123.383V132a9.313,9.313,0,0,1-9.313,9.313H14.513A9.313,9.313,0,0,1,5.2,132V64.013A9.313,9.313,0,0,1,14.513,54.7h18.16a9.313,9.313,0,0,1,9.313,9.313h0Z" transform="translate(-5.2 58.452)" fill="#00acea"/>
</svg>
