<svg xmlns="http://www.w3.org/2000/svg" xmlns:xlink="http://www.w3.org/1999/xlink" width="1920" height="1065" viewBox="0 0 1920 1065">
  <defs>
    <clipPath id="clip-path">
      <rect id="Rectangle_87" data-name="Rectangle 87" width="664.508" height="1065" fill="none"/>
    </clipPath>
  </defs>
  <g id="Groupe_324" data-name="Groupe 324" transform="translate(0 -6317.729)">
    <rect id="Rectangle_47" data-name="Rectangle 47" width="1920" height="1065" transform="translate(0 6317.729)" fill="#fff5ed"/>
    <g id="Groupe_323" data-name="Groupe 323" transform="translate(627.746 6317.729)" opacity="0.095">
      <g id="Groupe_322" data-name="Groupe 322" clip-path="url(#clip-path)">
        <path id="Tracé_54" data-name="Tracé 54" d="M130.83,238.24c0-90.042-.107-157.382.23-224.718.021-4.7-4.828-13.513,6.467-13.359,10.832.147,6.629,8.565,6.648,13.556.257,69.38.656,138.762.077,208.139-1.4,167.234,6.347,334.2,13.742,501.189,4.194,94.659,9.132,189.272,16.181,283.762,1.173,15.737,2.907,31.452,5.07,47.081,1.048,7.554.263,11.019-8.774,10.765-22.427-.625-44.885-.447-67.324-.064-7.337.126-9.466-1.749-8.774-9.466,14.925-165.938,21.159-332.4,29.448-498.732,5.658-113.532,9.126-227.144,7.009-318.152" transform="translate(194.474 0.331)" fill="#030362"/>
        <path id="Tracé_55" data-name="Tracé 55" d="M412.758,963.036c-27.62,0-52.932-.23-78.239.156-6.626.1-8.676-3.924-11.139-8.433C242.051,805.9,171.13,652.917,138.974,484.792c-10.36-54.164-16.5-108.9-16.735-164.081-.435-102.051-.123-204.1-.116-306.152,0-3.063.028-6.124.055-9.184.04-3.936,2.38-5.094,5.928-5.226,4.246-.162,6.886,1.084,6.721,5.9-.119,3.566,0,7.141,0,10.713,0,83.683,1.8,167.411-.407,251.036C130.874,402.445,164.17,528.029,221.535,648.4c50.154,105.24,112.7,202.992,179.907,297.933,3.425,4.834,6.654,9.806,11.316,16.7" transform="translate(251.749 0.278)" fill="#ec0430"/>
        <path id="Tracé_56" data-name="Tracé 56" d="M0,963.315c26.955-39.946,52.794-77.124,77.488-115.049,63.55-97.6,120.241-198.823,158.616-309.332,22.491-64.775,37.343-131.242,40.624-199.926,5.067-106.021,1-212.121,2.245-318.179.046-4.08.025-8.164.025-12.244,0-4.264.123-8.326,6.017-8.574,5.732-.239,6.788,3.223,6.626,7.836-.018.509.006,1.02,0,1.532-.668,112.724,2.818,225.511-1.522,338.162-5.652,146.684-47.755,284.58-106.6,417.957C155.329,829.4,123.856,891.66,90.373,952.94c-4.255,7.79-8.933,10.8-17.78,10.578-23.377-.594-46.781-.2-72.593-.2" transform="translate(0 -0.002)" fill="#36b7fd"/>
        <path id="Tracé_57" data-name="Tracé 57" d="M60.913,862.094c9.42-26.535,18.417-51.315,27.025-76.226,46.156-133.561,77.783-270.225,86.351-411.631,3.734-61.642,2.252-123.412,2.3-185.133q.074-86.493.009-172.984c0-3.572-.021-7.147.178-10.71.211-3.75,2.656-5.2,6.13-5.312,4.126-.138,6.969,1.182,6.911,5.958-.046,3.572.04,7.144.04,10.716,0,98.485.294,196.97-.067,295.452-.659,180.532-17.556,359.339-57.727,535.649-2.386,10.474-6.02,15.357-17.823,14.53-17.137-1.2-34.423-.309-53.331-.309" transform="translate(125.687 0.183)" fill="#fdc707"/>
        <path id="Tracé_58" data-name="Tracé 58" d="M114.821,213.984c0-65.8-.15-131.6.257-197.4.037-5.753-5.37-16.677,6.485-16.447,10.321.2,5.673,10.336,5.7,15.893.325,77.023,1.749,154.079-.074,231.059-4.9,206.785,36.194,404.882,109.253,597.266,6.678,17.587,6.641,17.605-12.774,17.621q-12.241.009-24.483,0c-26.508,0-26.7.043-32.129-25.111C143.39,727.2,127.494,616.5,120.387,504.448c-6.136-96.782-5.428-193.612-5.566-290.465" transform="translate(234.978 0.276)" fill="#56db96"/>
      </g>
    </g>
  </g>
</svg>
