<?xml version="1.0" encoding="UTF-8"?>
<svg id="Calque_2" data-name="Calque 2" xmlns="http://www.w3.org/2000/svg" viewBox="0 0 214.99 150.4">
  <defs>
    <style>
      .cls-1 {
        stroke-width: 0px;
      }
    </style>
  </defs>
  <g id="Calque_1-2" data-name="Calque 1">
    <g>
      <path class="cls-1" d="m111.72,103.51c-.44,1.03-1.31,1.34-1.99,1.82-2.72,1.9-5.49,3.75-8.21,5.66-3.63,2.56-7.24,5.14-10.82,7.76-1.73,1.26-3.6,1.9-5.75,1.89-10.55-.04-21.1-.04-31.65-.03-1.96,0-3.81-.28-5.37-1.53-.99-.79-1.96-1.61-2.88-2.49-3.97-3.76-7.94-7.53-11.85-11.34-1.7-1.66-3.35-3.37-4.5-5.5-.81-1.49-1.4-3.02-1.58-4.7-.13-1.26-.23-2.53-.24-3.8-.01-8.89,0-17.77.01-26.66,0-.79,0-1.59-.05-2.38-.06-1.16-.55-2.14-1.34-2.97-1.42-1.48-3.44-1.43-4.79.14-.93,1.07-1.29,2.34-1.28,3.74.01,2.3-.01,4.6-.01,6.9,0,6.74,0,13.49-.03,20.23,0,3.19.26,6.34,1.15,9.42.96,3.34,2.62,6.33,5.02,8.8,4.02,4.15,8.17,8.19,12.31,12.22,3.52,3.43,7.09,6.8,10.65,10.18,1.21,1.15,2.4,2.31,3.68,3.37,1.38,1.15,2.36,2.6,3.14,4.15,1.06,2.08,1.05,4.35.15,6.47-2.44,5.76-9.15,7.22-13.59,3.45-2.11-1.79-4.08-3.76-6.07-5.68-2.63-2.53-5.22-5.08-7.83-7.63-2.49-2.44-4.97-4.89-7.45-7.34-1.18-1.17-2.37-2.34-3.53-3.53-2.31-2.39-4.74-4.68-6.87-7.23-3.49-4.16-6.18-8.81-7.86-14.02-2.5-7.79-2.8-15.72-1.63-23.76.55-3.79,1.54-7.46,3.09-10.95,2.91-6.55,7.03-12.17,12.76-16.59,3.87-2.99,8.08-5.24,12.71-6.82,3.93-1.34,7.94-2.15,12.09-2.29,1.97-.06,3.94-.18,6.02-.28.2-.54.42-1.04.56-1.56,1.8-6.53,4.94-12.38,9.26-17.53,3.85-4.59,8.43-8.32,13.89-10.96,3.72-1.8,7.61-2.66,11.68-2.88,4.54-.25,9.06.02,13.41,1.44,3.01.98,5.84,2.36,8.54,4.1,3.99,2.57,7.29,5.84,10.23,9.5,2.44,3.04,4.4,6.39,6.08,9.9.1.2.08.45.12.68-.44.68-1.13.53-1.73.53-2.22.02-4.44-.07-6.66-.02-1.98.05-3.96.2-5.93.37-4.9.43-9.12,2.55-13.02,5.41-2.12,1.55-4,3.36-5.53,5.52-2.69,3.82-4.12,8.03-3.81,12.73.32,4.83,2.36,8.9,6.03,12,2.47,2.09,5.51,3.1,8.75,3.38,1.26.11,2.54.15,3.8.15,10.23.01,20.47,0,30.7,0,1.35,0,2.7-.03,4.04-.08,2.08-.09,4.07-.52,5.99-1.35,5.2-2.25,8.12-6.2,8.75-11.79.21-1.8.11-3.64.1-5.47-.02-3.09-.11-6.19-.12-9.28-.03-8.57-.03-17.14-.05-25.71,0-.39-.06-.78-.1-1.29-.45-.12-.88-.28-1.32-.36-2.84-.48-5.56-1.31-7.92-3.03-3.03-2.22-5.31-4.98-6.26-8.69-.36-1.4-.45-2.83-.24-4.25.09-.61.29-1.24.58-1.79.74-1.42,1.96-2.06,3.54-1.83.78.12,1.54.37,2.28.63,2.61.93,5.18,2,7.83,2.82,5.86,1.82,11.86,2.82,18.02,2.81,10.47-.01,20.95.03,31.42.03,2.41,0,4.78.23,6.95,1.31,4.21,2.1,7.1,5.28,7.71,10.13.64,5.14-2.74,9.45-7.33,10.45-1.23.27-2.51.34-3.77.37-2.22.05-4.44,0-6.66,0-2.17,0-3.81,1.01-4.92,2.82-.44.72-.78,1.57-.92,2.4-.19,1.17-.2,2.37-.21,3.56-.02,10.31,0,20.63-.03,30.94,0,2.14-.09,4.28-.24,6.42-.21,3.15-1.36,6.02-2.91,8.72-3.18,5.54-7.77,9.26-13.97,11.07-2.87.84-5.75,1.2-8.69,1.06-10.71-.5-21.42-.14-32.13-.2-14.99-.09-29.99-.04-44.98-.06-4.52,0-9.05-.07-13.57.01-3.14.06-5.74-1.1-7.98-3.14-3.05-2.77-6.06-5.58-9.03-8.44-.96-.93-1.8-2.01-2.57-3.12-.82-1.19-1.2-2.59-1.26-4.04-.05-1.19,0-2.38,0-3.57,0-1.11.05-2.22,0-3.33-.06-1.13-.43-2.17-1.25-3.01-2.01-2.06-4.89-1.49-5.93,1.19-.2.51-.36,1.07-.37,1.61-.05,3.33-.34,6.66.24,9.97.5,2.87,1.59,5.49,3.57,7.66,1.49,1.64,3.04,3.24,4.63,4.78,2,1.93,4.08,3.76,6.11,5.66,3.63,3.41,8.01,5.05,12.9,5.41,1.98.15,3.96.15,5.95.16,9.12.05,18.25.08,27.37.11,1.11,0,2.22-.07,3.33-.05.44,0,.88.17,1.42.28Zm49.68-25.43c.59.2.92.39,1.27.43,1.84.19,3.66.02,5.41-.54,4.1-1.33,6.73-4.08,7.64-8.32.28-1.31.41-2.67.43-4.01.06-5.71.04-11.42.07-17.13.02-2.85.06-5.71.13-8.56.04-1.74-.34-3.3-1.65-4.54-1.36-1.29-3.39-1.25-4.69.09-.8.83-1.31,1.79-1.35,2.96-.05,1.35-.11,2.69-.11,4.04-.01,6.5,0,13.01-.02,19.51,0,1.35-.04,2.7-.1,4.04-.18,4.29-1.95,7.78-5.27,10.49-.54.44-1.05.91-1.76,1.54Zm13.32-56.36c1.91.16,3.94-1.28,4.01-3.79.06-2.23-1.84-4.01-4.04-4.17-1.93-.14-4.31,2.23-4.22,4.04.12,2.31,2.3,4.15,4.25,3.92Zm-89.64,9.07c.06-.03.16-.04.18-.08.02-.04-.04-.12-.06-.18-.06.03-.16.04-.18.08-.02.04.03.12.06.19Zm-24.04,15.17c-.06.13-.16.26-.15.37,0,.1.12.2.19.3.05-.12.14-.24.14-.36,0-.1-.11-.21-.17-.32Z"/>
      <path class="cls-1" d="m85.48,134.16c.67-.72,1.03-1.23,1.51-1.61,2.23-1.78,4.46-3.56,6.74-5.26,5.27-3.94,10.54-7.88,15.87-11.74,4.11-2.97,8.25-5.91,12.48-8.71,3.17-2.1,6.76-3.1,10.56-3.27,1.19-.05,2.38-.06,3.57-.06,15.55,0,31.1,0,46.64.02,1.74,0,3.49,0,5.23.1,3.28.18,6.45.84,9.35,2.45,3.63,2,6.5,4.79,8.37,8.51,1.58,3.13,2.21,6.5,1.54,9.94-.86,4.39-3.27,7.69-7.55,9.38-.72.29-1.53.48-2.31.49-3.73.08-7.45.08-11.18.1-.31,0-.63-.08-.93-.15-.36-.09-.61-.65-.4-.97.3-.46.62-.93,1.02-1.29,1.05-.96,2.15-1.88,3.25-2.79.93-.77,1.67-1.7,2.18-2.79.85-1.8.14-3.66-1.75-4.2-2.25-.65-4.55-.66-6.81.03-1.19.36-2.02,1.24-2.68,2.25-.52.8-1,1.62-1.4,2.48-1.44,3.1-3.83,5.21-6.9,6.56-.92.41-1.96.59-2.97.77-.7.13-1.42.11-2.14.11-6.82.02-13.64.04-20.47.04-.87,0-1.74-.05-2.61-.15-.6-.07-.87-.78-.47-1.28.4-.49.84-.95,1.32-1.36,1.9-1.68,3.83-3.32,5.73-5,.53-.47,1.07-.96,1.5-1.52.63-.82,1.15-1.72.73-2.94-.43-.09-.88-.27-1.33-.28-2.62-.03-5.23-.01-7.85-.02-2.56-.01-4.34,1.24-5.6,3.38-1.01,1.7-1.92,3.45-3.34,4.89-2.49,2.53-5.37,4.18-9,4.21-5.31.04-10.63.05-15.94.06-6.82,0-13.64,0-20.47-.01-1.01,0-2.04.07-3.49-.35Z"/>
      <path class="cls-1" d="m118.08,67.11c-4.6,0-9.19.02-13.79,0-1.5,0-3.02-.04-4.51-.2-4.32-.46-7.34-3.61-7.56-8.07-.13-2.62.55-4.98,2.11-7.14,2.75-3.84,6.5-6.2,10.9-7.61,1.11-.36,2.34-.46,3.52-.47,6.34-.04,12.68-.04,19.02,0,2.97.02,5.81.73,8.47,2.07,4.17,2.1,7.03,5.37,8.3,9.89.68,2.44.4,4.9-.69,7.19-.85,1.78-2.25,3.03-4.19,3.63-1.92.58-3.89.72-5.87.72-5.23.01-10.46,0-15.69,0h0Z"/>
    </g>
  </g>
</svg>