<svg id="Groupe_321" data-name="Groupe 321" xmlns="http://www.w3.org/2000/svg" width="217.955" height="252.53" viewBox="0 0 217.955 252.53">
  <g id="Groupe_320" data-name="Groupe 320" transform="translate(0 0)">
    <path id="Tracé_50" data-name="Tracé 50" d="M145.18,390H110.241a5.261,5.261,0,1,0,0,10.522H145.18a5.261,5.261,0,1,0,0-10.522ZM71.094,400.525H89.2A5.261,5.261,0,0,0,89.2,390h-18.1a5.261,5.261,0,1,0,0,10.522ZM145.179,414.7H71.095a5.261,5.261,0,0,0,0,10.522h74.084a5.261,5.261,0,0,0,0-10.522Zm64.528-14.174H248.9a5.261,5.261,0,0,0,0-10.522H209.707a5.261,5.261,0,1,0,0,10.522Zm-34.9,0h13.852a5.261,5.261,0,0,0,0-10.522H174.81a5.261,5.261,0,0,0,0,10.522ZM248.9,414.7H174.812a5.261,5.261,0,1,0,0,10.522H248.9a5.261,5.261,0,0,0,0-10.522Z" transform="translate(-51.017 -197.386)" fill="#dc5461"/>
    <path id="Tracé_51" data-name="Tracé 51" d="M234.111,56.051v-.4a15.153,15.153,0,0,0-19.756-14.416v-.4a15.139,15.139,0,1,0-30.278,0v.4a15.154,15.154,0,0,0-19.756,14.416V81.518a17.546,17.546,0,0,0-14.172,0V45.772a15.153,15.153,0,0,0-19.756-14.416v-.4a15.153,15.153,0,0,0-19.756-14.416v-.4a15.139,15.139,0,1,0-30.277,0v.4A15.153,15.153,0,0,0,60.605,30.955V56.822A17.6,17.6,0,0,0,35.911,72.937v33.55a30.749,30.749,0,0,0,6.111,18.333l4.7,6.265a20.158,20.158,0,0,1,4.006,12.02V248.268a5.261,5.261,0,0,0,5.261,5.261h74.084a5.261,5.261,0,0,0,5.261-5.261V145.15a19.877,19.877,0,0,1,4.338-12.445,30.77,30.77,0,0,0,6.067,16.809l4.7,6.266a20.157,20.157,0,0,1,4.006,12.02v80.47a5.261,5.261,0,0,0,5.261,5.261h74.084a5.261,5.261,0,0,0,5.261-5.261V169.844a19.9,19.9,0,0,1,5.868-14.165,30.356,30.356,0,0,0,8.949-21.606V70.467A15.152,15.152,0,0,0,234.111,56.051ZM133.76,123.545a30.356,30.356,0,0,0-8.949,21.605v97.857H61.25V143.1a30.75,30.75,0,0,0-6.111-18.333l-4.7-6.265a20.157,20.157,0,0,1-4.006-12.02V72.936a7.086,7.086,0,0,1,14.172,0v9.477A16.077,16.077,0,0,0,71.611,97.683a5.566,5.566,0,0,1,3.811,5.287v7.007a5.261,5.261,0,1,0,10.522,0v-7.007a16.074,16.074,0,0,0-11-15.269,5.568,5.568,0,0,1-3.812-5.288V30.956a4.617,4.617,0,1,1,9.234,0V75.406a5.261,5.261,0,0,0,10.522,0V16.139a4.617,4.617,0,0,1,9.234,0V75.406a5.261,5.261,0,0,0,10.522,0V30.955a4.617,4.617,0,0,1,9.234,0V75.406a5.261,5.261,0,0,0,10.522,0V45.772a4.617,4.617,0,0,1,9.234,0v63.607A19.905,19.905,0,0,1,133.76,123.545Zm109.585,10.528a19.9,19.9,0,0,1-5.867,14.165,30.356,30.356,0,0,0-8.949,21.606v73.163H164.967V167.8a30.75,30.75,0,0,0-6.111-18.333l-4.7-6.266a20.157,20.157,0,0,1-4.006-12.02V97.63a7.086,7.086,0,0,1,14.173,0v9.477a16.075,16.075,0,0,0,11.006,15.27,5.566,5.566,0,0,1,3.811,5.287v7.008a5.261,5.261,0,0,0,10.522,0v-7.008a16.075,16.075,0,0,0-11.005-15.27,5.566,5.566,0,0,1-3.811-5.287V55.65a4.617,4.617,0,0,1,9.234,0V100.1a5.261,5.261,0,0,0,10.522,0V40.833a4.617,4.617,0,0,1,9.234,0V100.1a5.261,5.261,0,0,0,10.522,0V55.65a4.617,4.617,0,0,1,9.234,0V100.1a5.261,5.261,0,0,0,10.522,0V70.466a4.617,4.617,0,0,1,9.234,0v63.607Z" transform="translate(-35.911 -1)" fill="#0281c4"/>
  </g>
</svg>
