<svg xmlns="http://www.w3.org/2000/svg" width="214.07" height="203.748" viewBox="0 0 214.07 203.748">
  <g id="_26ff6937e39b8605dd8757847c977fd9" data-name="26ff6937e39b8605dd8757847c977fd9" transform="translate(-10.713 -13.3)">
    <path id="Tracé_52" data-name="Tracé 52" d="M41.4,169.1a9.881,9.881,0,0,0,.2,10.248l.2.4a13.576,13.576,0,0,0,6.028,5.023,12.362,12.362,0,0,0,6.631,1.407l43,.4V156.041H48.834Zm-9.243-4.22c.2-.2.2-.6.4-.8L41.4,148.406l16.477-28.734a5.134,5.134,0,0,1,3.014-2.411,5,5,0,0,1,3.818.4l1.206.6L56.068,91.34,27.937,96.565l1.206.6a5.134,5.134,0,0,1,2.411,3.014,5,5,0,0,1-.4,3.818L17.689,127.509a15.077,15.077,0,0,0,.6,15.874l13.865,21.5ZM90.227,18.4h-.2a15.315,15.315,0,0,0-12.458,6.832l-21.7,33.355L81.185,74.864,105.9,37.289,99.068,23.826A10.421,10.421,0,0,0,90.227,18.4Zm71.734,88.612,22.3,38.981h15.07a10.019,10.019,0,0,0,8.841-5.425v-.2a14.788,14.788,0,0,0,1.407-7.836,14.223,14.223,0,0,0-2.009-6.43l-19.692-34.36L161.96,107.013ZM131.619,68.635a5.478,5.478,0,0,1-2.612,3.014l-1.206.6,27.729,6.43,11.051-26.322-1.206.6a5.1,5.1,0,0,1-3.818.4,5.478,5.478,0,0,1-3.014-2.612L146.287,26.438A15.351,15.351,0,0,0,132.624,18.2H107.708c.2.2.2.6.4.8l8.238,16.075,15.07,29.537a5.608,5.608,0,0,1,.2,4.019ZM148.1,156.242a4.975,4.975,0,0,1-5.023-5.023v-1.407l-18.486,21.7,18.486,21.7v-1.407a5.777,5.777,0,0,1,1.407-3.617,4.842,4.842,0,0,1,3.617-1.407h27.126a15.091,15.091,0,0,0,13.463-8.439l11.252-22.1H148.1Z" transform="translate(5.054 4.946)" fill="none"/>
    <path id="Tracé_53" data-name="Tracé 53" d="M113.164,79.609a5.154,5.154,0,0,0,3.818,4.421l45.612,10.65c.4,0,.8.2,1.206.2a4.955,4.955,0,0,0,4.622-3.215l18.084-43.2a4.908,4.908,0,0,0-1.206-5.626,5.178,5.178,0,0,0-5.827-.8l-9.042,4.622L160.383,26.964A25.3,25.3,0,0,0,137.678,13.3H95.08a24.482,24.482,0,0,0-12.659,3.818,25.6,25.6,0,0,0-8.238,7.836L49.467,62.127a5.338,5.338,0,0,0-.8,3.818,4.557,4.557,0,0,0,2.21,3.215l34.159,21.9a5.323,5.323,0,0,0,7.033-1.407l24.112-36.972,8.841,17.079-9.042,4.622a5.133,5.133,0,0,0-2.813,5.224Zm-26.925.2L60.921,63.534l21.7-33.154a13.3,13.3,0,0,1,4.822-4.622,15.229,15.229,0,0,1,7.636-2.21h.2a10.171,10.171,0,0,1,8.841,5.425l6.832,13.262L86.238,79.809ZM121.4,40.225,113.164,24.15c-.2-.2-.2-.6-.4-.8h24.916a14.983,14.983,0,0,1,13.664,8.238L163.6,55.9a4.889,4.889,0,0,0,3.014,2.612,4.32,4.32,0,0,0,3.818-.4l1.206-.6L160.584,83.828,132.855,77.4l1.206-.6a4.889,4.889,0,0,0,2.612-3.014,4.32,4.32,0,0,0-.4-3.818L121.4,40.225ZM196.15,84.833a4.2,4.2,0,0,0-3.818.6l-34.963,20.093a5.145,5.145,0,0,0-1.808,7.033l21.9,38.379h-19.29V140.693a5.206,5.206,0,0,0-3.416-4.822,4.977,4.977,0,0,0-5.626,1.407l-30.14,35.766a5.16,5.16,0,0,0,0,6.631l30.14,35.565a4.948,4.948,0,0,0,3.818,1.808,5.867,5.867,0,0,0,1.808-.4,5.206,5.206,0,0,0,3.416-4.822V201.576h22.1a24.924,24.924,0,0,0,22.5-14.065l19.29-37.575c0-.2.2-.2.2-.4v-.2a24.167,24.167,0,0,0,2.411-13.061,25.248,25.248,0,0,0-3.215-10.85l-22.1-38.78a7.114,7.114,0,0,0-3.215-1.808Zm-2.411,98.458a15.091,15.091,0,0,1-13.463,8.439H153.15a5.777,5.777,0,0,0-3.617,1.407,4.842,4.842,0,0,0-1.407,3.617v1.407l-18.486-21.7,18.486-21.7v1.407a4.975,4.975,0,0,0,5.023,5.023h51.841l-11.252,22.1Zm20.9-45.813a14.788,14.788,0,0,1-1.407,7.836v.2a10.171,10.171,0,0,1-8.841,5.425h-15.07l-22.3-38.981,26.122-15.271,19.692,34.36a18.113,18.113,0,0,1,1.808,6.43ZM15.107,154.557l22.907,35.164c.2.2.2.4.4.6a24.85,24.85,0,0,0,10.047,8.64,29.69,29.69,0,0,0,11.051,2.612l48.023.4a5.777,5.777,0,0,0,3.617-1.407,4.842,4.842,0,0,0,1.407-3.617V155.964a5.777,5.777,0,0,0-1.407-3.617,4.842,4.842,0,0,0-3.617-1.407H59.715l9.645-16.678,8.841,5.023a5.182,5.182,0,0,0,5.827-.6,4.977,4.977,0,0,0,1.407-5.626l-16.075-44a4.927,4.927,0,0,0-5.626-3.215L17.72,94.478A4.906,4.906,0,0,0,13.7,98.7a5,5,0,0,0,2.411,5.224l8.841,5.023L13.9,128.034a25.256,25.256,0,0,0,1.206,26.523Zm87.407,6.43v30.542l-43-.2a15.207,15.207,0,0,1-12.659-6.43l-.2-.4a9.881,9.881,0,0,1-.2-10.248l7.435-13.061,48.626-.2Zm-79.57-27.93,13.463-23.509a5.1,5.1,0,0,0,.4-3.818,4.605,4.605,0,0,0-2.411-3.014l-1-.8,28.131-5.224,9.846,26.925-1.206-.6a5.065,5.065,0,0,0-6.832,2.009L46.855,153.753l-8.841,15.673c-.2.2-.2.6-.4.8l-13.664-20.9A15.03,15.03,0,0,1,22.944,133.057Z" transform="translate(0 0)" fill="#3a9b41"/>
  </g>
</svg>
