<svg id="c8eac2063abd1ce9aae20b5cb3af6ab2" xmlns="http://www.w3.org/2000/svg" width="80.353" height="48.871" viewBox="0 0 80.353 48.871">
  <path id="Tracé_9" data-name="Tracé 9" d="M63.7,25.47l.213.039Zm.581.1.248.034Zm.614.074.242.02Zm.328.026.2.013Zm.3.018.242.009Zm.323.01q.271.007.542,0Zm.628,0,.252-.01Zm.332-.014.217-.014Zm.293-.019.236-.02Zm.641-.065c.061-.007.121-.015.181-.024ZM78.828,5.2q-.1-.053-.2-.1Zm-.659-.237q-.126-.026-.254-.039ZM93.953,17.289l-.046.006ZM35.032,13.708a2.43,2.43,0,0,1-.647-.979,3.47,3.47,0,0,1-.248-1.035,3.57,3.57,0,0,1,1.819-3.12,2.089,2.089,0,0,0,.651-.476.308.308,0,0,0-.1-.025,2.658,2.658,0,0,1-2.256-.917A2.354,2.354,0,0,1,33.791,5.7a3.359,3.359,0,0,1,.113-.841c.36-.6.7-.432.912-.127a3.744,3.744,0,0,0,2.177.942,1.976,1.976,0,0,1,1.493.8,2.089,2.089,0,0,1,.367,1.2,1.741,1.741,0,0,1-.051.432c-.124.5-.652.954-1.388,1.529L37,9.981a2.376,2.376,0,0,0-.947,1.634,1.031,1.031,0,0,0,.065.362.877.877,0,0,0,.064.134c.273.462,1.045.752,2.164.361a7.146,7.146,0,0,0,2.122-1.409,3.909,3.909,0,0,1,2.591-.958,2.238,2.238,0,0,0,1.635-.645,3.849,3.849,0,0,1,2.926-1.382c.352-.027.371-.052.417-.114a3.772,3.772,0,0,1,1.5-1.242,4.7,4.7,0,0,1,.949-.289l.324-.08.081-.029a6.431,6.431,0,0,0,1.952-1.006l.044-.028h0l.044-.027h0l.044-.026h0l.044-.025h0l.044-.023h0l.044-.023h0l.044-.021h0l.044-.02h0l.044-.019h0l.044-.018h0l.044-.017h0l.044-.016.047-.016h0l.044-.014h0L53.519,5h0l.044-.012h0l.044-.01h0l.043-.01h0l.044-.009h0l.044-.008h0l.044-.007h0l.043-.006h0l.044,0h0l.043,0h0l.043,0h0l.043,0h0l.043,0h0l.043,0h.2l.091,0,.042,0h.006l.041,0h.006l.041,0h.006l.041,0h.007l.041,0h.006l.04,0h.007l.04.006h.007l.04.006h.007l.039.007h.007l.039.007.007,0c.062.012.124.025.184.04l.038.01.008,0q.091.024.179.05l.035.011.009,0c.117.037.23.078.34.122l.031.013.04.017A12.829,12.829,0,0,1,65.528.015h0Q65.824,0,66.12,0q.2,0,.391.006l.194.007h0l.193.01a12.836,12.836,0,0,1,9.489,5.1,3.893,3.893,0,0,1,1.005-.212H77.4l.033,0,.034,0h.274l.035,0h.008l.035,0h.007l.035,0h.007l.036,0h.006a2.567,2.567,0,0,1,.254.039l.037.008h0l.037.009h.005l.037.01h0l.038.01h0l.039.011h0l.038.012h0l.038.013h0l.041.014.039.014h0l.039.015h0l.039.016h0c.068.029.135.06.2.1h0l.039.021h0l.039.023h0l.039.024h0l.039.024h0l.039.025a7.6,7.6,0,0,0,1.487.844c.159.063.307.111.464.162l.082.029.327.08a6.018,6.018,0,0,1,.6.156,3.638,3.638,0,0,1,1.841,1.375c.046.062.067.087.42.114A3.86,3.86,0,0,1,87.175,9.46,2.221,2.221,0,0,0,88.8,10.1a3.9,3.9,0,0,1,2.592.958,7.141,7.141,0,0,0,2.123,1.409c1.119.392,1.895.1,2.161-.361a.928.928,0,0,0,.118-.318,1.033,1.033,0,0,0,.016-.178,2.38,2.38,0,0,0-.946-1.634l-.076-.063-.346-.283c-.733-.576-1.262-1.028-1.389-1.529a1.746,1.746,0,0,1-.048-.432,2.125,2.125,0,0,1,.364-1.2,1.993,1.993,0,0,1,1.494-.8,3.723,3.723,0,0,0,2.177-.942c.213-.3.552-.468.911.127a3.308,3.308,0,0,1,.114.841,2.349,2.349,0,0,1-.46,1.457,2.663,2.663,0,0,1-2.258.917.3.3,0,0,0-.1.025,2.037,2.037,0,0,0,.65.476,3.574,3.574,0,0,1,1.821,3.12,3.369,3.369,0,0,1-.25,1.035,2.463,2.463,0,0,1-.542.879c-.033.034-.067.067-.1.1a3.711,3.711,0,0,1-2.879.79q-.232-.014-.463-.042a4.861,4.861,0,0,1-.527,2.066.563.563,0,0,0-.1.279c0,.019,0,.03,0,.039s.651.382.651.382l.1.053s.06.029.068.035.222-.013.222-.013l.042-.006h0c.4-.038,1.015-.235,1.276.493.068.193.11.362.149.511a1.165,1.165,0,0,0,.415.737s.132-.113.282-.246q.174-.153.34-.314c.186-.19.53-.094.778,0a6.439,6.439,0,0,1,.781.436.824.824,0,0,1,.406.468.838.838,0,0,0,.453.435,1.312,1.312,0,0,1,.55,1.095.76.76,0,0,0,.034.235,1.125,1.125,0,0,0,.069.165c.316.636.062.957-.121,1.092a1.52,1.52,0,0,1-1.087.193l0,.1-.595-.079a2.442,2.442,0,0,0-.716.068l-.043.011a1.232,1.232,0,0,1-1.288-.564c-.011-.019-.023-.038-.034-.058a1.984,1.984,0,0,0-.527-.609,2.092,2.092,0,0,1-.779.08,1.861,1.861,0,0,1-1.014-.444c-.059-.049-.119-.1-.178-.163a1.99,1.99,0,0,0-1.654-.568l-.26.046a2.483,2.483,0,0,1-1.825-.157,4.94,4.94,0,0,0-.594-.283c-.562-.245-1.142-.5-1.221-1.028a1.517,1.517,0,0,0-.2-.406,3.389,3.389,0,0,1-.217-.4,1.154,1.154,0,0,1-.107-.433,1.9,1.9,0,0,1-.564.058q-.1-.005-.2-.02l-.244-.038a5.011,5.011,0,0,0-1.546-.111,8.427,8.427,0,0,1-2.734.184l-.337-.073a4.123,4.123,0,0,1-.516.449,6.087,6.087,0,0,1,.856.03l.433.114a2.493,2.493,0,0,1,.668-.019l.507.038.578.056c.279.056.574.176.524.722a1.008,1.008,0,0,1-.255.546,5.457,5.457,0,0,0-.446.661l-.022.043a.761.761,0,0,1-.8.481,1.83,1.83,0,0,0-.193.008c-.015.041-.057.117-.057.117a1.835,1.835,0,0,1-.6.831L82,21.846a1.312,1.312,0,0,1-1.322.244l-.222-.08a16.561,16.561,0,0,1-1.845-.743l-.06-.033c-.4-.219-.489-.263-.635-.243L77.834,21a1.141,1.141,0,0,1-1.286-.543l-.037-.058a12.854,12.854,0,0,1-8.043,5.078l-.014,0c-.112.02-.225.039-.338.057l-.042.006-.155.023-.181.025-.11.014-.174.019-.12.013-.236.02-.075,0-.217.014-.079,0-.252.01h-.086q-.271.007-.542,0h-.081l-.242-.009-.1-.005c-.068,0-.136-.007-.2-.013l-.087-.006-.242-.02-.119-.012-.158-.017-.088-.01q-.124-.015-.248-.034l-.1-.015L64,25.525l-.091-.015-.213-.039-.153-.031-.078-.016c-.1-.023-.21-.045-.314-.071l-.028-.006-.164-.04-.084-.022c-.1-.025-.195-.052-.292-.079l-.035-.01a12.863,12.863,0,0,1-7.017-5.066l-.219.333a1.137,1.137,0,0,1-1.285.543l-.081-.013c-.145-.02-.237.024-.633.243l-.064.033a16.184,16.184,0,0,1-1.843.743l-.223.08a1.3,1.3,0,0,1-1.318-.244l-.087-.061a1.844,1.844,0,0,1-.6-.831s-.038-.076-.057-.117a1.847,1.847,0,0,0-.194-.008.761.761,0,0,1-.8-.481l-.02-.043a5.177,5.177,0,0,0-.449-.661.994.994,0,0,1-.254-.546.574.574,0,0,1,.523-.722l.578-.056.508-.038a2.474,2.474,0,0,1,.665.019l.433-.114a6.061,6.061,0,0,1,.854-.03,4.914,4.914,0,0,1-.514-.449l-.337.073a8.389,8.389,0,0,1-2.729-.184,5.022,5.022,0,0,0-1.548.111l-.248.038a1.89,1.89,0,0,1-.758-.038,1.818,1.818,0,0,1-.326.831,1.537,1.537,0,0,0-.2.406c-.074.532-.662.784-1.222,1.028a5,5,0,0,0-.591.283,2.481,2.481,0,0,1-1.825.157l-.26-.046a1.992,1.992,0,0,0-1.653.568,1.88,1.88,0,0,1-1.971.527,1.972,1.972,0,0,0-.527.609,1.235,1.235,0,0,1-1.323.622l-.044-.011a2.394,2.394,0,0,0-.71-.068l-.6.079.006-.1A1.532,1.532,0,0,1,32.5,22.4c-.181-.135-.435-.455-.115-1.092a.826.826,0,0,0,.1-.4,1.312,1.312,0,0,1,.546-1.095.823.823,0,0,0,.455-.435.816.816,0,0,1,.4-.468,6.471,6.471,0,0,1,.779-.436c.249-.094.593-.19.78,0s.622.56.622.56c.4-.307.359-.66.565-1.247.257-.728.873-.532,1.273-.493l.046.006s.216.01.222.013l.072-.035.1-.053L39,16.84a.129.129,0,0,0,0-.039.555.555,0,0,0-.1-.279,4.827,4.827,0,0,1-.527-2.066c-.1.012-.2.023-.3.03a3.8,3.8,0,0,1-3.036-.779Z" transform="translate(-24.568)" fill="#f8ee3f"/>
  <g id="Groupe_20" data-name="Groupe 20" transform="translate(8.158 5.019)">
    <path id="Tracé_10" data-name="Tracé 10" d="M40.479,30.013a4.77,4.77,0,0,0,.438,2.372s.421.6-.016.98l-.87.506a.829.829,0,0,1-.505.058s-.536-.133-.716.1a7.081,7.081,0,0,1-.351.831,2.626,2.626,0,0,1-1.052,1.2,1.006,1.006,0,0,0-.681.573.655.655,0,0,1-.506.332s-.252.08-.418.641a3.01,3.01,0,0,0-.086.641,1.853,1.853,0,0,1,.709.045.844.844,0,0,0,1-.336s.594-1.018,1.035-.864a1.54,1.54,0,0,0,1.51-.35A2.506,2.506,0,0,1,42.036,36s1.366.277,1.792-.039c0,0,.862-.45,1.185-.562a.645.645,0,0,0,.436-.549,4.2,4.2,0,0,1,.415-.812l-.652-.007a3.168,3.168,0,0,1-1.593,1.292,3.383,3.383,0,0,1-1.649.041A3.283,3.283,0,0,0,39,36.506a.409.409,0,0,1-.46.164,3.773,3.773,0,0,1,2.451-1.618A3.241,3.241,0,0,1,42,35.01a3.732,3.732,0,0,0,3.32-2.166s-.114-1.9.388-2.355c0,0,.194-.059.155.309,0,0-.345,1.994.3,2.381a1.437,1.437,0,0,0,1.072.186,5.663,5.663,0,0,1,1.913-.105,8.066,8.066,0,0,0,2.453.168,1.677,1.677,0,0,1-.236-.989s.162-.386.348-.138a3.1,3.1,0,0,0,1.628,1.873A1.768,1.768,0,0,1,54.4,35.911a5.452,5.452,0,0,1-1.575.687s-.527.167-.7-.227c0,0-.681-1.457-1.273-1.412l-1.113.09s-.38.1-.1.4a7.826,7.826,0,0,1,.537.809s.045.258.4.2c0,0,.5-.246.777.678a1.452,1.452,0,0,0,.69.609,1.062,1.062,0,0,0,.786-.078,18.9,18.9,0,0,0,2.157-.914,1.045,1.045,0,0,1,.713-.116.715.715,0,0,0,.778-.3l.569-.881a.958.958,0,0,0,.108-.49.706.706,0,0,0-.176-.545,1.142,1.142,0,0,1-.249-.392l-.406-.954a1.316,1.316,0,0,0-.345-.36l-.542.04a9.015,9.015,0,0,0,.646,1.341,2.138,2.138,0,0,1,.351.925.759.759,0,0,1-.124.357s-.125.2-.175.3a1.374,1.374,0,0,1-.3.436,1.684,1.684,0,0,1-.287.142s-.1.028-.026-.152a2.9,2.9,0,0,0,.284-.981.649.649,0,0,0-.193-.564,10.133,10.133,0,0,1-.675-1.211,1.853,1.853,0,0,0-.284-.437.243.243,0,0,1,.127-.4,6.163,6.163,0,0,0,.978-.289s.4-.121.658-.951a5.881,5.881,0,0,0,.352-1.567,2.564,2.564,0,0,1-.416,2.719s.883.26,1.248,0c0,0,1.1-.161,1.312-.219,0,0,.276-.067.119.129a2.239,2.239,0,0,0-.36.781.584.584,0,0,1-.223.39s-.625.438-.68.857c0,0-.134.4.142.307,0,0,.374-.173.506,0,0,0,.039.018-.106.18a1.262,1.262,0,0,0-.4.765,1.962,1.962,0,0,0,.2.668.425.425,0,0,0,.436.16.221.221,0,0,1,.2-.019,1.774,1.774,0,0,0,.477-.12s.523-.144.7-.206a3.751,3.751,0,0,1,.994-.222,1.761,1.761,0,0,1,.486.031,1.751,1.751,0,0,0,1.388-.519s.422-.335.566-.01a2.748,2.748,0,0,0,2.653,1s-1.3-.537-1.643-1.268a3.041,3.041,0,0,0-.729-1.482s-.209-.286-.007-.36c0,0,.117-.087.371.168a4.46,4.46,0,0,1,.884,1.193s.806,1.219,1.969.809a3.2,3.2,0,0,1-1.341-1.008,3.327,3.327,0,0,0-1.156-1.549,3.333,3.333,0,0,0-.45-1.56s-.212-.938-.269-1.157a7.744,7.744,0,0,1-.223-1.051A2.977,2.977,0,0,0,62.8,27.2a5.84,5.84,0,0,0-1.188-1.52s-.55-.68-.959-1.1a9.855,9.855,0,0,0-1.711-1.454,7.588,7.588,0,0,1-.92-.8s-2.069-1.49-3.564-.295a7.428,7.428,0,0,1-1.895.92,3.777,3.777,0,0,0-2.528,1.436s-.065.227-.779.314a3.144,3.144,0,0,0-2.724,1.354,2.888,2.888,0,0,1-1.6.651,3.557,3.557,0,0,0-2.861,1.151s-2.846,2.483-4.544.873c0,0-.879-.833.126-2.34a10.679,10.679,0,0,1,1.726-1.574,1.352,1.352,0,0,0,.478-1.588,1.445,1.445,0,0,0-1.536-.959,4.705,4.705,0,0,1-2.331-1.159,1.96,1.96,0,0,0,2.192,2.6s.767.113.5.722a2.269,2.269,0,0,1-.88.71,2.678,2.678,0,0,0-1.288,1.68,2.367,2.367,0,0,0,1.29,3.135,5.5,5.5,0,0,0,2.679.054Zm-4.209,5.33a.535.535,0,0,1,.447-.119c.348.075.137.376.137.376a4.321,4.321,0,0,1-.6.708.535.535,0,0,1-.733-.058c-.3-.3.091-.443.091-.443A3.685,3.685,0,0,0,36.27,35.342Zm-.877,1.414a.237.237,0,0,1,.059.279,5.424,5.424,0,0,0-.309,1.187s-.719.128-.818-.226a.568.568,0,0,1,.1-.335,1.226,1.226,0,0,0,.154-.524s-.011-.852.541-.627a1.008,1.008,0,0,1,.275.246Zm25.325-1.8c-.126,0-.159-.049-.143-.189a.872.872,0,0,1,.4-.554c.582-.348.653,0,.653,0,.107.622-.385.7-.385.7A3.483,3.483,0,0,1,60.717,34.953Zm1.757-2.776c.011-.292.035-.94-.261-1.171-.109-.087-.542-.561-.542-.561-.066-.115-.116-.122-.116-.122-.089-.009-.2.2-.2.2-.308.594-.615.522-.615.522a.512.512,0,0,1,.07-.229q.223-.433.442-.868c.045-.1.086-.241.086-.241.3-.461.578-.11.578-.11a11.47,11.47,0,0,0,.792,1.039.708.708,0,0,1,.162.365c.154,1.089-.391,1.177-.391,1.177ZM56.334,25.6a.476.476,0,0,1,.038-.49c.206-.316.4.029.4.029a3.065,3.065,0,0,1,.186,2.48,3.561,3.561,0,0,0-.623-2.018Zm38.246,4.411a4.77,4.77,0,0,1-.438,2.372s-.421.6.016.98l.87.506a.828.828,0,0,0,.505.058s.536-.133.715.1a7.128,7.128,0,0,0,.351.831,2.629,2.629,0,0,0,1.053,1.2,1,1,0,0,1,.68.573.656.656,0,0,0,.506.332s.252.08.419.641a3.013,3.013,0,0,1,.087.641,1.856,1.856,0,0,0-.709.045.844.844,0,0,1-1-.336s-.594-1.018-1.035-.864a1.54,1.54,0,0,1-1.51-.35A2.505,2.505,0,0,0,93.022,36s-1.366.277-1.792-.039c0,0-.862-.45-1.185-.562a.644.644,0,0,1-.436-.549,4.2,4.2,0,0,0-.416-.812l.651-.007a3.167,3.167,0,0,0,1.593,1.292,3.384,3.384,0,0,0,1.649.041,3.284,3.284,0,0,1,2.969,1.141.409.409,0,0,0,.46.164,3.771,3.771,0,0,0-2.451-1.618,3.241,3.241,0,0,0-1.011-.043,3.733,3.733,0,0,1-3.32-2.166s.114-1.9-.388-2.355c0,0-.193-.059-.155.309,0,0,.345,1.994-.3,2.381a1.438,1.438,0,0,1-1.073.186,5.66,5.66,0,0,0-1.913-.105,8.07,8.07,0,0,1-2.453.168,1.676,1.676,0,0,0,.237-.989s-.163-.386-.349-.138a3.1,3.1,0,0,1-1.628,1.873,1.768,1.768,0,0,0-1.047,1.738,5.466,5.466,0,0,0,1.575.687s.528.167.7-.227c0,0,.68-1.457,1.273-1.412l1.113.09s.379.1.1.4a7.907,7.907,0,0,0-.537.809s-.045.258-.4.2c0,0-.5-.246-.777.678a1.45,1.45,0,0,1-.69.609,1.062,1.062,0,0,1-.786-.078,18.879,18.879,0,0,1-2.157-.914,1.045,1.045,0,0,0-.713-.116.715.715,0,0,1-.778-.3l-.569-.881a.954.954,0,0,1-.108-.49.705.705,0,0,1,.176-.545,1.138,1.138,0,0,0,.249-.392l.406-.954a1.318,1.318,0,0,1,.345-.36l.542.04a9.018,9.018,0,0,1-.647,1.341,2.138,2.138,0,0,0-.351.925.762.762,0,0,0,.124.357s.125.2.176.3a1.364,1.364,0,0,0,.3.436,1.675,1.675,0,0,0,.287.142s.1.028.025-.152a2.916,2.916,0,0,1-.284-.981.651.651,0,0,1,.193-.564,10.18,10.18,0,0,0,.676-1.211,1.84,1.84,0,0,1,.283-.437.243.243,0,0,0-.127-.4,6.161,6.161,0,0,1-.978-.289s-.4-.121-.658-.951a5.891,5.891,0,0,1-.352-1.567,2.563,2.563,0,0,0,.416,2.719s-.883.26-1.248,0c0,0-1.1-.161-1.312-.219,0,0-.276-.067-.118.129a2.247,2.247,0,0,1,.36.781.581.581,0,0,0,.223.39s.625.438.679.857c0,0,.134.4-.142.307,0,0-.374-.173-.506,0,0,0-.039.018.106.18a1.261,1.261,0,0,1,.4.765,1.958,1.958,0,0,1-.2.668.424.424,0,0,1-.436.16.222.222,0,0,0-.2-.019,1.774,1.774,0,0,1-.477-.12s-.523-.144-.7-.206a3.751,3.751,0,0,0-.995-.222,1.761,1.761,0,0,0-.486.031,1.752,1.752,0,0,1-1.388-.519s-.422-.335-.565-.01a2.749,2.749,0,0,1-2.654,1s1.306-.537,1.644-1.268a3.037,3.037,0,0,1,.728-1.482s.209-.286.007-.36c0,0-.116-.087-.371.168a4.468,4.468,0,0,0-.883,1.193s-.807,1.219-1.969.809a3.2,3.2,0,0,0,1.341-1.008A3.325,3.325,0,0,1,70.7,32.884a3.33,3.33,0,0,1,.45-1.56s.212-.938.269-1.157a7.751,7.751,0,0,0,.222-1.051,2.976,2.976,0,0,1,.62-1.913,5.829,5.829,0,0,1,1.189-1.52s.55-.68.959-1.1a9.864,9.864,0,0,1,1.712-1.454,7.582,7.582,0,0,0,.92-.8s2.069-1.49,3.565-.295a7.426,7.426,0,0,0,1.9.92,3.775,3.775,0,0,1,2.527,1.436s.065.227.779.314a3.144,3.144,0,0,1,2.724,1.354,2.888,2.888,0,0,0,1.6.651,3.555,3.555,0,0,1,2.86,1.151s2.847,2.483,4.544.873c0,0,.879-.833-.126-2.34a10.675,10.675,0,0,0-1.725-1.574,1.352,1.352,0,0,1-.478-1.588,1.445,1.445,0,0,1,1.536-.959,4.7,4.7,0,0,0,2.331-1.159,1.96,1.96,0,0,1-2.192,2.6s-.767.113-.5.722a2.269,2.269,0,0,0,.88.71,2.679,2.679,0,0,1,1.288,1.68,2.367,2.367,0,0,1-1.291,3.135,5.5,5.5,0,0,1-2.678.054Zm4.209,5.33a.535.535,0,0,0-.446-.119c-.348.075-.138.376-.138.376a4.331,4.331,0,0,0,.6.708.535.535,0,0,0,.733-.058c.3-.3-.092-.443-.092-.443A3.7,3.7,0,0,1,98.789,35.342Zm.877,1.414a.238.238,0,0,0-.059.279,5.434,5.434,0,0,1,.31,1.187s.719.128.818-.226a.569.569,0,0,0-.1-.335,1.226,1.226,0,0,1-.154-.524s.011-.852-.541-.627a1.01,1.01,0,0,0-.276.246Zm-25.325-1.8c.127,0,.159-.049.144-.189a.873.873,0,0,0-.4-.554c-.582-.348-.653,0-.653,0-.106.622.385.7.385.7a3.478,3.478,0,0,0,.52.043Zm-1.756-2.776c-.011-.292-.036-.94.261-1.171.11-.087.542-.561.542-.561.066-.115.116-.122.116-.122.089-.009.2.2.2.2.308.594.615.522.615.522a.512.512,0,0,0-.071-.229q-.223-.433-.442-.868-.049-.118-.086-.241c-.3-.461-.577-.11-.577-.11a11.479,11.479,0,0,1-.791,1.039.708.708,0,0,0-.163.365c-.154,1.089.391,1.177.391,1.177Zm6.14-6.576a.476.476,0,0,0-.038-.49c-.206-.316-.4.029-.4.029a3.064,3.064,0,0,0-.187,2.48,3.558,3.558,0,0,1,.623-2.018Z" transform="translate(-34.323 -21.116)" fill="#cc2729"/>
  </g>
  <path id="Tracé_11" data-name="Tracé 11" d="M0,125.418v18.216H3.676v-14.74H5.407s2.7-.122,2.7,2.339a2.3,2.3,0,0,1-2.4,2.4H4.83v4.193l3.676,5.808h4.313l-5.134-7.448a4.719,4.719,0,0,0,4.223-4.952c0-4.587-3.19-5.816-7.442-5.816Zm53.741,8.52a4.78,4.78,0,0,0,1.61-3.625c0-2.374-1.724-4.514-5.4-4.514H43.807v17.835H51.38s5.428-.062,5.428-4.967C56.808,135.82,55.7,134.73,53.741,133.939Zm-2.962,6.592h-3.3V128.909h1.761s2.394-.18,2.394,1.909a1.728,1.728,0,0,1-1.9,1.9h-1.1v3.131h2.141a2.237,2.237,0,0,1,2.349,2.329C53.127,140.24,50.779,140.53,50.779,140.53ZM76.92,125.06h3.433v18.574H76.92Zm-5.908,0H74.49v18.574H71.012Zm-13.169,7.693h3.523v6.227s.123,2.1,2.1,2.1,1.945-2.1,1.945-2.1v-6.2h3.554v6.411s.456,5.012-5.407,5.012-5.711-4.4-5.711-5.195ZM34.481,125.06v8.423a6.824,6.824,0,0,0-3.647-1.306,5.277,5.277,0,0,0-5.224,5.68c0,4.314,2.8,5.955,5.195,5.955a5.132,5.132,0,0,0,3.737-1.58v1.4H38V125.06H34.481Zm-2.674,15.713c-.183,0-2.461.031-2.461-2.764a2.657,2.657,0,0,1,2.491-2.886,2.826,2.826,0,0,1,2.8,2.825A2.755,2.755,0,0,1,31.807,140.773Zm-13.124-8.6c5.894,0,5.65,5.742,5.65,5.742v.911H16.344a2.493,2.493,0,0,0,2.582,2.43,2.781,2.781,0,0,0,2.248-1.428l2.825,1.4a5.742,5.742,0,0,1-5.042,2.764c-6.137,0-6.258-5.1-6.258-5.741s.092-6.076,5.985-6.076ZM16.4,136.732H20.78a2.219,2.219,0,0,0-2.157-2.065A2.3,2.3,0,0,0,16.4,136.732Z" transform="translate(0 -95.336)" fill="#cc2729"/>
</svg>
