<svg xmlns="http://www.w3.org/2000/svg" xmlns:xlink="http://www.w3.org/1999/xlink" width="78.18" height="93.91" viewBox="0 0 78.18 93.91">
  <defs>
    <clipPath id="clip-path">
      <rect id="Rectangle_46" data-name="Rectangle 46" width="78.18" height="93.91"/>
    </clipPath>
  </defs>
  <g id="Groupe_292" data-name="Groupe 292" transform="translate(0 0)">
    <g id="Groupe_291" data-name="Groupe 291" transform="translate(0 0)" clip-path="url(#clip-path)">
      <path id="Tracé_43" data-name="Tracé 43" d="M40.5,44.232c-.478.547-.621.632-.632.733C38.4,58.17,29.147,64.928,20.019,71.795a46.809,46.809,0,0,1-4.363,3.246c-.671.39-2.3.371-2.464.011a3.631,3.631,0,0,1-.085-2.967,29.155,29.155,0,0,1,5.083-5.764C26.761,59.469,30.674,50.6,31.3,39.147c.609-11.138,4.538-12.517,13.247-6.048,14.27,10.6,14.267,10.6,20.68,28.165,1.239,3.4,2.68,6.725,3.681,10.2.327,1.135-.444,2.624-.712,3.952-1.123-.655-2.735-1.006-3.292-2.01-3.421-6.171-6.738-12.417-9.8-18.792a10.871,10.871,0,0,0-5.7-5.763c-3.039-1.318-5.919-3.045-8.906-4.615" transform="translate(8.117 18.498)"/>
      <path id="Tracé_44" data-name="Tracé 44" d="M58.867,36.025c-1.349-3.743-2.5-6.925-3.855-10.7-2.792,2.381-5.147,4.221-7.316,6.28-2.44,2.319-4.51,2.324-6.618-.446-1.243-1.633-2.7-3.088-4.177-5.08,5.787,3.1,10.515,1.37,14.929-3.437-.978-.857-1.979-1.654-2.892-2.551C45.044,16.268,42.8,11.508,43.9,5.975,44.35,3.7,46.53.753,48.486.15s5.2.683,6.832,2.312a13.593,13.593,0,0,1,3.619,13.17c-1.816,6.823-.443,12.9,2.231,18.915,1.448,3.261.683,4.985-2.7,5.425-.469.062-.924.232-1.388.336-18.278,4.1-11.725,4.755-28.262-5.492-3.261-2.022-3.882-5.3-1.968-7.928,1.839-2.526,4.486-2.469,7.4.243a30.447,30.447,0,0,1,4.626,4.674c3.184,4.629,7.352,5.781,12.438,4.85,2.283-.418,4.638-.4,7.546-.63M58.436,13.6c-1.649-3.565-2.851-7.064-4.822-9.984-.81-1.2-3.555-1.953-4.92-1.435-1.383.523-3.165,3.013-2.987,4.383A29.291,29.291,0,0,0,48.855,16.9c.952,1.7,4.117,3.393,5.7,2.92,1.568-.465,2.4-3.669,3.877-6.22" transform="translate(16.314 0)"/>
      <path id="Tracé_45" data-name="Tracé 45" d="M38.4,12.115c0,3.366-2.471,6.114-5.51,6.124-3.178.01-5.516-2.516-5.567-6.011-.054-3.7,2.358-6.4,5.632-6.3,3.109.09,5.441,2.743,5.444,6.192" transform="translate(17.293 3.748)"/>
      <path id="Tracé_46" data-name="Tracé 46" d="M6.7,36.645c-1.749,1.607-2.8,3.313-3.806,3.29C1.838,39.911-.079,38.115,0,37.269a4.774,4.774,0,0,1,2.64-3.4c.789-.271,2.177,1.419,4.053,2.781" transform="translate(0 21.417)"/>
    </g>
  </g>
</svg>
