<svg xmlns="http://www.w3.org/2000/svg" xmlns:xlink="http://www.w3.org/1999/xlink" width="114.925" height="75.299" viewBox="0 0 114.925 75.299">
  <defs>
    <clipPath id="clip-path">
      <rect id="Rectangle_43" data-name="Rectangle 43" width="114.925" height="75.299" fill="none"/>
    </clipPath>
  </defs>
  <g id="Groupe_285" data-name="Groupe 285" clip-path="url(#clip-path)">
    <path id="Tracé_29" data-name="Tracé 29" d="M12.41,39.2c4.5-3,8.334-5.876,9.367-11.722,1.371-7.781,6.657-11.1,11.446-7.411,2.515,1.935,5.7,6.022,5.229,8.407C37.821,31.706,34.127,34.4,31.463,37c-2.074,2.026-5.026,3.16-6.813,5.385C20.365,47.73,16.789,53.72,12.382,58.934,10.806,60.8,7.3,62.5,5.343,61.886S1.108,57.757.959,55.377C.246,43.833-.021,32.243,0,20.671c.014-7.016,4.332-11.046,9.94-10.224,5.412.8,8.373,6.226,6.9,12.824-.61,2.728-1.378,5.421-2.132,8.113C13.981,34,13.179,36.6,12.41,39.2" transform="translate(0.001 13.285)"/>
    <path id="Tracé_30" data-name="Tracé 30" d="M19.977,26.923c.352-4.937.672-9.415,1.024-14.331,3.05,0,5.983-.174,8.892.032,9.771.692,19.522,1.828,29.3,2.189,6.92.256,13.87-.681,20.808-.685,6.159,0,9.4,3.157,9.257,8.471-.114,4.126-1.325,7.612-5.581,8.912-4.38,1.337-10.1-.258-11.9-4.105-1.41-3.025-3.2-3.349-5.917-3.155-13.575.971-27.162,1.807-40.746,2.659-1.6.1-3.214.014-5.14.014" transform="translate(25.663 16.087)"/>
    <path id="Tracé_31" data-name="Tracé 31" d="M33.2,13.205c-.016,7.548-5.179,13.344-11.887,13.349-6.513,0-12.065-6.1-12.1-13.294C9.173,5.926,14.533.025,21.259,0,28.08-.027,33.223,5.661,33.2,13.205" transform="translate(11.836 0)"/>
  </g>
</svg>
