<svg xmlns="http://www.w3.org/2000/svg" xmlns:xlink="http://www.w3.org/1999/xlink" width="114.925" height="93.91" viewBox="0 0 114.925 93.91">
  <defs>
    <clipPath id="clip-path">
      <rect id="Rectangle_41" data-name="Rectangle 41" width="114.925" height="93.91" fill="#0281c5"/>
    </clipPath>
  </defs>
  <g id="Groupe_275" data-name="Groupe 275" clip-path="url(#clip-path)">
    <path id="Tracé_23" data-name="Tracé 23" d="M51.861,53.36c-12.492-3.823-24.285,1.995-35.1,11.654A76.1,76.1,0,0,1,5.486,73.19c-1.437.872-3.635.341-5.486.448.578-1.757.679-4.036,1.809-5.191,12.306-12.56,24.774-24.947,37.2-37.376,3.9-3.906,7.754-7.875,11.746-11.681,4.731-4.511,9.209-4.189,12.761,1.45,4.875,7.732,9.426,15.706,13.806,23.765,2.618,4.819.453,8.561-4.819,8.711-6.19.177-12.385.043-20.641.043m9.534-9.852c-5.522-7.806-8.319-7.445-15.5,1.645,5.372-.569,10.04-1.067,15.5-1.645" transform="translate(0 20.207)" fill="#0281c5"/>
    <path id="Tracé_24" data-name="Tracé 24" d="M52.643,30.528c5.623-2.6,10.486-5,15.478-7.033,1.221-.5,2.878.186,4.334.327-.659,1.338-.991,3.185-2.026,3.931C64.645,31.908,58.681,35.777,52.8,39.782c-3.07,2.093-5.46,1.571-7.3-1.827-3.319-6.107-6.858-12.093-9.989-18.306C32.943,14.553,34.348,9.6,38.416,7.78c4.184-1.88,7.844.5,9.635,6.457C49.611,19.43,51,24.678,52.643,30.528" transform="translate(42.47 8.875)" fill="#0281c5"/>
    <path id="Tracé_25" data-name="Tracé 25" d="M57.4,9.494l-9.518,6.975c-.347-.1-.811-.085-.937-.3-3.548-5.948-7.967-5.406-13.216-2.544A63.639,63.639,0,0,1,22.24,17.968c-1.017.323-2.333-.412-3.512-.663.524-1.1.773-2.714,1.616-3.223,6.65-4.009,13.364-7.907,20.184-11.576a5.592,5.592,0,0,1,4.563-.047c4.072,2.028,7.949,4.5,12.306,7.035" transform="translate(23.245 2.477)" fill="#0281c5"/>
    <path id="Tracé_26" data-name="Tracé 26" d="M40.775,9.043C40.764,4.081,44.511-.049,48.984,0s8.059,4.234,7.967,9.265c-.085,4.767-3.608,8.644-7.952,8.752-4.469.112-8.214-3.974-8.225-8.974" transform="translate(50.609 0)" fill="#0281c5"/>
  </g>
</svg>
