<svg xmlns="http://www.w3.org/2000/svg" xmlns:xlink="http://www.w3.org/1999/xlink" width="107.898" height="93.909" viewBox="0 0 107.898 93.909">
  <defs>
    <clipPath id="clip-path">
      <rect id="Rectangle_44" data-name="Rectangle 44" width="107.898" height="93.909" fill="#e93547"/>
    </clipPath>
  </defs>
  <g id="Groupe_287" data-name="Groupe 287" clip-path="url(#clip-path)">
    <path id="Tracé_32" data-name="Tracé 32" d="M0,44.974C.148,31.9,9.684,21.6,21.461,21.787c11.646.187,21.147,11.036,20.909,23.874-.243,12.983-9.985,23.475-21.558,23.21C9.037,68.6-.146,58.058,0,44.974" transform="translate(0 25.033)" fill="#e93547"/>
    <path id="Tracé_33" data-name="Tracé 33" d="M64.493,23.621c1.4,6.284-1.543,10.653-6.931,10.7-4.214.034-8.429.073-12.641.14-.282,0-.557.249-.834.387-.127,5.953,1.328,7.889,5.48,7.3,10.084-1.431,18.749,3.563,22.882,13.191,4.141,9.647,1.6,21.577-6.045,28.39A19.625,19.625,0,0,1,41.979,85.3a24.128,24.128,0,0,1-8.723-27.425C34.773,53.6,38.209,50.1,40.7,46.191c.694-1.087,1.861-2.637,1.567-3.5q-3.469-10.1-7.5-19.978c-1.416-3.471-3.509-6.63-4.956-10.09-1.371-3.28-.756-6.4,2.65-7.8,3.245-1.337,5.426.576,6.583,3.718,1.868,5.072,3.8,10.135,5.3,15.334.819,2.839,2.2,4.122,4.894,4.272a26.38,26.38,0,0,1,4.154.733c4.154.922,8.379,2.119,9.591-4.333.071-.383.941-.6,1.511-.928m-20.038,24.9c-8.719,5.087-11.667,16.866-6.892,26.4,4.563,9.108,14.829,12.807,23.182,8.351,9.061-4.833,12.886-16.34,8.71-26.208C65.462,47.627,56.242,43.206,48,46.96c1.414,6.694,6.11,12.448,6.25,19.55l-1.717.75Q48.5,57.9,44.455,48.523" transform="translate(33.474 5.048)" fill="#e93547"/>
    <path id="Tracé_34" data-name="Tracé 34" d="M16.709,14.844c.082-6.316,5.328-9.641,10.155-6.458,6.22,4.1,12.22,8.584,18.291,12.938,3.381,2.424,3.323,5.145.686,8.246-3.862,4.539-7.763,9.061-11.3,13.87a9.906,9.906,0,0,0-1.807,6.125C33.4,57.45,34.618,65.279,35.4,73.156c.129,1.3-.926,2.723-1.433,4.09-.937-1.107-2.4-2.065-2.732-3.346-4.812-18.79-9.478-37.622-14.156-56.451a21.729,21.729,0,0,1-.365-2.6m14.257,21.22,1.3.4c1.88-2.854,3.759-5.708,5.923-8.992l-8.536-3.116c.5,4.438.907,8.076,1.317,11.713" transform="translate(19.2 8.228)" fill="#e93547"/>
    <path id="Tracé_35" data-name="Tracé 35" d="M30.92,2.82C37.438.554,42.59-.909,48.023.645c3.86,1.1,6.026,4.954,5.463,9.136-.518,3.847-2.527,6.505-6.258,6.828-4.225.363-6.37-2.36-7.634-6.428a10.473,10.473,0,0,0-3.241-4.219c-1.2-1.068-2.787-1.653-5.433-3.142" transform="translate(35.53 0)" fill="#e93547"/>
    <path id="Tracé_36" data-name="Tracé 36" d="M24.047,26.873c-.41-3.636-.819-7.275-1.317-11.713l8.536,3.116c-2.164,3.284-4.042,6.138-5.923,8.992l-1.3-.4" transform="translate(26.119 17.42)" fill="#e93547"/>
  </g>
</svg>
