<svg xmlns="http://www.w3.org/2000/svg" xmlns:xlink="http://www.w3.org/1999/xlink" width="79.515" height="93.729" viewBox="0 0 79.515 93.729">
  <defs>
    <clipPath id="clip-path">
      <rect id="Rectangle_45" data-name="Rectangle 45" width="79.515" height="93.729" fill="#01a451"/>
    </clipPath>
  </defs>
  <g id="Groupe_289" data-name="Groupe 289" clip-path="url(#clip-path)">
    <path id="Tracé_37" data-name="Tracé 37" d="M29.782,50.2c1.717,6.678,1.574,7.038-3.293,9.9-5.27,3.1-10.586,6.113-15.742,9.408-1.048.669-1.473,2.426-2.186,3.682,1.3.128,2.755.736,3.856.309,7.359-2.85,14.629-5.95,21.953-8.9a5.577,5.577,0,0,0,3.9-5.339c.4-7.126.933-14.244,1.433-21.364.236-3.36-.5-6.236-3.9-7.252-3.285-.981-5.17,1.091-6.577,3.939-2.063,4.182-4.346,8.249-6.239,12.51A6.124,6.124,0,0,1,17.8,51.069c-4.768.752-9.519,1.687-14.219,2.817-1.3.312-2.395,1.578-3.584,2.4,1.287.595,2.574,1.7,3.86,1.7,5.786-.017,11.57-.455,17.358-.523,2.822-.033,4.864-1,6.185-3.7a35.162,35.162,0,0,1,2.38-3.571" transform="translate(0 20.082)" fill="#01a451"/>
    <path id="Tracé_38" data-name="Tracé 38" d="M24.64,33.689c.34-2.886.634-5.387.978-8.309-2.866-.88-6.146-1.114-8.448-2.823-2.114-1.571-3.175-4.728-4.056-6.146,2.669-2.657,5.271-4.338,6.586-6.789,1.636-3.046-.593-7.063-3.795-8.251-2.989-1.106-5.874.49-7.442,3.647-1.619,3.26-1.978,6.374-.332,9.7a9.652,9.652,0,0,1,.91,2.9c1.3,9.388,8.063,12.841,15.6,16.076" transform="translate(4.665 0.674)" fill="#01a451"/>
    <path id="Tracé_39" data-name="Tracé 39" d="M26.947,17.167c-4.454-.037-6.671,3.752-5,7.156,4.1,8.332,7.968,16.93,17.479,20.13,2.38.8,4.482,2.481,6.827,3.449.89.367,2.1-.131,3.165-.234-.43-1.061-.586-2.5-1.342-3.114a93.382,93.382,0,0,0-9.2-6.713,11.73,11.73,0,0,1-5.7-7.8,47.281,47.281,0,0,0-3.2-9.3c-.746-1.619-2.348-2.8-3.028-3.571" transform="translate(14.135 11.342)" fill="#01a451"/>
    <path id="Tracé_40" data-name="Tracé 40" d="M37.253,8.726c1.249,4.409,2.435,8.576,3.615,12.743l-1.5.44C37.879,16.882,36.414,11.846,34.9,6.827c-.89-2.946.284-4.7,2.865-5.532a24.012,24.012,0,0,1,15.973.143c1.231.45,3.079,2.383,2.9,3.222-1.234,5.826-2.926,11.544-4.472,17.3L50.623,21.5q1.729-6.385,3.459-12.778ZM54.717,4.737C51.537.821,40.541.7,36.675,4.534c3.237,3.981,14.256,4.1,18.042.2" transform="translate(22.865 -0.001)" fill="#01a451"/>
    <path id="Tracé_41" data-name="Tracé 41" d="M18.613,13.44c-.05,3.522,2.34,6.256,5.479,6.268a5.806,5.806,0,0,0,5.527-5.857c.131-3.509-2.179-6.3-5.328-6.43-3.18-.136-5.628,2.46-5.678,6.02" transform="translate(12.298 4.899)" fill="#01a451"/>
    <path id="Tracé_42" data-name="Tracé 42" d="M35.851,3.847c3.238,3.981,14.256,4.105,18.044.2C50.715.134,39.717.009,35.851,3.847" transform="translate(23.688 0.686)" fill="#01a451"/>
  </g>
</svg>
