<svg xmlns="http://www.w3.org/2000/svg" xmlns:xlink="http://www.w3.org/1999/xlink" width="86.478" height="93.91" viewBox="0 0 86.478 93.91">
  <defs>
    <clipPath id="clip-path">
      <rect id="Rectangle_42" data-name="Rectangle 42" width="86.478" height="93.91" fill="#ffac36"/>
    </clipPath>
  </defs>
  <g id="Groupe_283" data-name="Groupe 283" clip-path="url(#clip-path)">
    <path id="Tracé_27" data-name="Tracé 27" d="M27.84,15.745c2.186-5.637,6.355-4.681,10.337-4.205,3.253.387,6.507.793,9.731,1.377a6.016,6.016,0,0,1,5.063,7.431c-.771,3.583-3.937,5.2-7.758,3.848-2.181-.771-4.257-1.912-6.467-2.552-2.158-.626-5.1-1.943-6.51-.99-3.411,2.316-7.306,5.108-5.519,11.2,2.879-2.333,5.661-4.588,8.671-7.029,1.644,1.973,3.042,3.65,4.287,5.142-3.842,2.161-7.66,4.039-11.164,6.428a6.817,6.817,0,0,0-2.518,4.5c-.637,7.914-.921,15.861-1.328,23.8a6.29,6.29,0,0,1-.15,2.278,22.576,22.576,0,0,1-2.106,3c-.644-.953-1.734-1.846-1.857-2.867-.626-5.21-1.011-10.452-1.467-15.685C17.954,38.411,16.8,25.4,15.733,12.377a31.2,31.2,0,0,1,.052-7.266c.512-3.294,2.67-5.344,5.866-5.09,3.106.247,5.13,2.358,5.332,5.776.18,3.031.038,6.081.038,9.123l.819.824" transform="translate(10.397 0)" fill="#ffac36"/>
    <path id="Tracé_28" data-name="Tracé 28" d="M.022,58.87c-.332-4.554,3.278-7.525,6.518-5.9,2.74,1.37,5.253,1.579,7.98.018a5.05,5.05,0,0,1,2.907-.075c.564.073,1.113.829,1.619.774,2.875-.315,5.993-1.724,8.538-.953,3.042.92,5.619,1.988,8.636.255.754-.432,1.916-.155,2.879-.065.451.043.894.656,1.3.609,2.884-.322,5.978-1.634,8.576-.911,2.987.829,5.564,2.143,8.67.571.961-.487,2.335-.1,3.516-.037.339.018.684.467.993.427,2.872-.369,5.956-1.694,8.546-.985,2.976.816,5.629,2.441,8.6.489,2.884-1.9,4.656.846,6.8,1.812.391.175.556,2.186.123,2.8a3.652,3.652,0,0,1-2.709,1.125c-10.437.073-20.874.042-31.31.042q-24.211,0-48.423.008H.022" transform="translate(0 35.039)" fill="#ffac36"/>
  </g>
</svg>
